<svg xmlns="http://www.w3.org/2000/svg" viewBox="0 0 91 34"><defs><style>.a{fill:#4b4b4b;}</style></defs><title>HoaJing</title><polygon class="a" points="32 4 56 4 56 31 49 31 49 34 59 34 59 1 32 1 32 4"/><path class="a" d="M61,1V16H91V1ZM88,4V7H64V4ZM64,13V10H88v3Z"/><path class="a" d="M61,34h3V33h8v1h3V18H61Zm3-4V27h8v3Zm8-9v3H64V21Z"/><path class="a" d="M77,34h3V33h8v1h3V18H77Zm3-4V27h8v3Zm8-9v3H80V21Z"/><path class="a" d="M49,25h3V10H36V25h3V23H49ZM39,20V13H49v7Z"/><polygon class="a" points="16.5 0 13.5 0 13.5 1 0 1 0 34 3 34 3 4 30 4 30 1 16.5 1 16.5 0"/><polygon class="a" points="5 19 27 19 27 34 30 34 30 16 5 16 5 19"/><rect class="a" x="5" y="21" width="20" height="3"/><rect class="a" x="5" y="26" width="20" height="3"/><rect class="a" x="5" y="31" width="20" height="3"/><polygon class="a" points="16 14 16 6 5 6 5 9 8.17 9 6.89 10.28 8.3 11.7 11 9 12.59 9 9 12.59 10.41 14 13 11.41 13 14 16 14"/><polygon class="a" points="19 9 22.17 9 20.89 10.28 22.3 11.7 25 9 26.59 9 23 12.59 24.41 14 27 11.41 27 14 30 14 30 6 19 6 19 9"/></svg>